<?xml version="1.0" encoding="utf-8" ?>
<svg xmlns="http://www.w3.org/2000/svg" xmlns:xlink="http://www.w3.org/1999/xlink" width="1436" height="1026">
	<path d="M429.62 900.444C432.458 898.159 436.796 899.03 440.402 899.051C452.831 901.528 570.753 926.603 573.372 928.694C576.092 931.479 577.607 930.751 581.185 931.432L580.613 932.646C580.274 932.846 579.982 933.175 579.595 933.246C576.942 933.74 443.351 903.679 429.62 900.444Z"/>
	<path d="M933.985 157.485C959.06 191.008 963.509 230.156 957.622 270.786C954.385 293.126 948.309 317.441 939.422 338.256C939.368 335.684 939.379 333.411 938.526 330.947Q943.129 318.828 946.66 306.354Q950.191 293.88 952.622 281.146C960.299 239.635 957.782 198.003 933.309 162.507L933.985 157.485Z"/>
	<path d="M660.107 183.791Q671.538 171.947 684.052 161.254C721.825 128.987 777.725 100.22 828.842 104.313Q830.725 104.458 832.604 104.65Q834.483 104.841 836.357 105.078Q838.231 105.315 840.099 105.598Q841.966 105.881 843.826 106.21Q845.686 106.538 847.538 106.912Q849.389 107.286 851.231 107.705Q853.073 108.124 854.903 108.588Q856.734 109.052 858.554 109.56Q860.373 110.069 862.179 110.622Q863.985 111.175 865.777 111.772Q867.569 112.368 869.346 113.009Q871.123 113.649 872.884 114.333Q874.644 115.017 876.388 115.744Q878.131 116.47 879.857 117.239Q881.582 118.008 883.288 118.819Q884.994 119.63 886.679 120.483Q888.365 121.335 890.029 122.228Q891.693 123.122 893.335 124.056Q894.977 124.989 896.596 125.963Q898.214 126.937 899.809 127.95Q901.403 128.963 902.972 130.014Q904.541 131.066 906.084 132.155Q907.627 133.245 909.143 134.372Q910.659 135.499 912.147 136.663Q913.635 137.827 915.093 139.027Q916.552 140.226 917.982 141.462Q919.411 142.697 920.809 143.966Q922.208 145.236 923.575 146.54Q924.942 147.843 926.277 149.18Q927.612 150.516 928.914 151.885Q930.216 153.254 931.484 154.654Q932.752 156.054 933.985 157.485L933.309 162.507C909.473 132.53 872.981 113.274 834.992 109.014C783.776 103.271 732.809 127.485 693.771 158.779Q676.212 172.837 660.586 189.017C611.141 155.152 551.232 128.395 490.032 139.836C453.589 146.649 417.516 169.164 396.554 199.931C377.307 228.18 373.824 262.19 380.102 295.22C398.665 392.888 485.048 480.205 564.94 534.377C606.158 562.326 652.264 587.33 700.343 600.897C712.245 593.966 724.075 586.993 735.675 579.563C734.84 576.492 734.023 573.899 734.61 570.697L735.47 569.511C737.838 570.915 738.817 575.167 739.483 577.716C745.46 600.596 748.967 624.432 753.822 647.611L790.773 824.579L802.572 881.23C804.859 892.242 806.808 903.39 809.623 914.28C861.319 902.823 913.316 892.441 964.769 879.945C943.217 858.784 918.133 851.679 888.65 851.975C879.202 852.07 869.779 852.887 860.37 853.687L813.208 639.364C806.332 608.229 798.631 577.197 792.281 545.961C791.344 541.352 788.865 533.579 789.753 528.979L790.952 527.993C792.831 529.102 793.442 531.473 794.082 533.52C797.505 533.107 803.817 525.359 806.463 522.803C828.69 501.339 849.736 479.147 868.813 454.807C883.392 436.207 897.059 416.251 908.036 395.292C901.337 393.904 891.538 392.996 886.36 388.18L886.54 387.479C890.593 386.599 895.354 387.912 899.339 388.842C953.341 401.453 1006.79 417.525 1060.37 431.852C1068.33 433.982 1125.54 447.827 1128.97 450.219C1129.2 450.385 1129.39 450.612 1129.6 450.809C1129.74 450.909 1129.87 451.005 1130 451.109C1134.81 454.967 1135.73 462.509 1139.68 467.193C1148.81 478.045 1181.66 498.794 1195.91 497.226C1198.77 496.911 1200.72 495.707 1202.41 493.438C1202.79 490.741 1202.39 489.488 1200.66 487.231C1198.23 484.054 1193.12 479.619 1189.09 478.974C1187.56 479.524 1186.11 480.183 1184.46 480.148C1183.56 478.552 1183.5 477.896 1183.76 476.047C1184.74 469.194 1187.28 461.851 1189.01 455.109C1191.55 445.192 1193.71 435.094 1196.49 425.247C1197.62 421.269 1198.86 417.21 1201.62 414.041L1202.77 413.798C1203.55 415.237 1203.52 416.462 1203.04 418.002C1202.62 419.333 1201.73 421.059 1200.91 422.174C1210.95 420.987 1234.53 418.038 1240.85 410.263C1241.33 409.673 1241.31 408.785 1241.44 408.047C1240.29 405.661 1238.82 404.775 1236.33 403.92C1224.58 399.875 1201.97 402.134 1189.1 402.604C1190.46 406.397 1189.19 410.985 1187.52 414.526C1183.55 422.956 1175.23 430.071 1166.5 433.146C1159.27 435.695 1151 436.524 1143.87 433.145C1142.3 432.397 1141.05 431.77 1140.29 430.189C1143.7 428.243 1158.39 430.511 1163.33 430.147C1169.14 429.719 1175.55 423.574 1179.17 419.351C1181.86 416.212 1186.48 410.177 1185.92 405.78C1185.74 404.402 1185.47 404.146 1184.52 403.242C1182.78 403.095 1181.03 403.311 1179.71 402.123C1180.42 393.27 1204.69 379.374 1196.92 369.728C1195.59 368.07 1193.17 367.626 1191.16 367.612C1175.24 367.504 1158.95 379.565 1148.55 390.438C1145.19 393.954 1141.3 399.586 1137.16 401.964C1129.06 396.651 1104.63 391.765 1093.96 388.706L996.145 359.791C977.449 354.273 958.212 349.413 939.763 343.164C937.304 342.331 934.699 341.511 932.708 339.794C933.362 337.566 934.984 337.654 936.402 336.147C937.201 335.297 938.023 332.177 938.526 330.947C939.379 333.411 939.368 335.684 939.422 338.256C943.325 341.419 972.63 348.447 979.5 350.455L1069.59 377.577C1089.53 383.481 1109.72 388.801 1129.58 394.933C1131.36 395.483 1134.12 396.163 1135.45 397.48C1135.6 397.399 1135.76 397.322 1135.91 397.236C1140.79 394.447 1144.74 388.492 1148.83 384.55C1158.71 375.046 1178.84 360.439 1193.28 364.1C1195.77 364.734 1198.69 365.844 1200.13 368.109C1201.87 370.862 1201.35 375.19 1200.48 378.199C1198.43 385.251 1191.71 394.748 1185.26 398.35C1184.84 398.585 1184.71 398.623 1184.23 398.83C1198.55 398.178 1233.55 394.723 1244.74 404.017C1245.76 404.865 1246.06 405.781 1246.44 407.012C1246.09 410.085 1244.27 412.001 1241.94 413.86C1235.16 419.271 1223.53 423.089 1214.89 424.084C1226.87 426.109 1246.65 428.475 1254.35 438.688C1255.96 440.818 1256.72 443.357 1256.27 446.014C1255.77 448.968 1253.68 451.076 1251.26 452.657C1240.6 459.628 1220.82 456.52 1208.41 456.431C1218.09 458.172 1232.9 463.825 1238.49 472.43C1239.74 474.35 1240.58 476.621 1240.07 478.925C1239.58 481.176 1237.8 482.86 1235.87 483.967C1226.42 489.384 1212.65 485.627 1202.79 483.457C1204.9 486.155 1206.88 489.14 1206.29 492.758C1205.89 495.23 1204.47 497.609 1202.34 498.967C1197.69 501.929 1190.25 500.644 1185.25 499.298C1170.37 495.29 1145.8 481.072 1136.69 468.837C1133.37 464.371 1130.7 456.86 1126.58 453.513C1119.49 449.705 1080.54 440.972 1069.68 438.099L911.927 396.168Q907.369 404.098 902.554 411.874Q897.739 419.651 892.672 427.266Q887.605 434.88 882.292 442.325Q876.979 449.769 871.424 457.036Q865.87 464.303 860.081 471.383Q854.291 478.464 848.273 485.352Q842.255 492.239 836.015 498.926Q829.775 505.612 823.319 512.091C814.077 521.407 804.233 529.985 794.702 538.985C800.753 570.191 808.133 601.09 815.151 632.086L836.989 730.789L854.131 808.801C857.092 822.283 859.411 836.398 863.384 849.585C896.034 846.589 931.725 846.353 958.534 868.406C962.266 871.475 967.933 876.096 969.118 880.987L968.665 882.246C960.676 885.635 951.086 886.888 942.596 888.715L903.631 897.293L840.617 911.272C829.49 913.736 818.058 916.93 806.788 918.458C803.781 907.15 801.709 895.488 799.32 884.032L787.261 826.23L753.781 665.48C748.092 638.214 742.912 610.706 736.594 583.589C724.643 590.985 712.715 598.391 700.255 604.91C684.075 599.629 668.396 593.663 652.695 587.1L599.768 843.773Q594.349 870.865 588.494 897.866C586.061 909.009 583.155 920.204 581.185 931.432C577.607 930.751 576.092 931.479 573.372 928.694C570.753 926.603 452.831 901.528 440.402 899.051C436.796 899.03 432.458 898.159 429.62 900.444C425.375 900.037 420.848 898.546 416.671 897.574C420.903 890.939 425.831 885.265 432.156 880.547C456.995 862.016 494.601 860.5 524.132 864.823C533.336 817.993 544.107 771.368 554.48 724.782L592.086 556.283C532.489 521.343 486.989 478.932 442.255 426.947C416.191 434.432 389.898 441.006 363.69 447.956L227.177 484.26Q226.796 485.65 226.255 486.986C219.228 504.827 196.487 519.374 179.293 526.578C172.219 529.542 160.103 533.366 152.614 529.943C150.91 529.163 149.64 527.81 149.097 526C147.825 521.76 149.805 518.05 151.617 514.359C142.655 516.192 132.329 518.778 123.305 516.207C120.624 515.444 117.601 513.949 116.334 511.315C115.328 509.223 115.553 506.872 116.457 504.79C120.564 495.33 134.246 490.883 143.051 487.384C131.133 487.571 114.682 489.317 104.11 482.903C101.75 481.472 99.2411 479.179 98.7071 476.337C98.2755 474.039 99.1629 471.797 100.477 469.946C108.585 458.52 128.187 456.616 140.874 454.571C131.975 452.846 119.794 450.845 113.345 443.993C111.893 442.451 110.533 440.258 110.739 438.047C110.919 436.117 112.09 434.518 113.573 433.349C123.902 425.206 156.561 428.448 169.666 429.73C163.345 422.308 153.314 411.862 153.589 401.399C153.64 399.473 154.253 397.582 155.801 396.345C158.472 394.21 162.665 394.326 165.911 394.584C187.287 396.282 205.285 411.894 218.496 427.621C281.022 410.386 343.388 391.475 405.466 372.675C393.945 349.534 383.368 326.788 377.479 301.454C369.712 268.046 372.164 231.592 390.692 202.04C411.298 169.173 447.84 145.29 485.42 136.856C531.993 126.402 581.87 140.194 623.262 161.754C635.98 168.378 647.996 176.136 660.107 183.791Z"/>
	<path fill="#E57575" d="M1199.85 426.739C1214.41 425.338 1234.71 430.9 1247.23 437.92C1250.02 439.485 1253.41 441.241 1254.32 444.524C1250.17 461.013 1208.15 446.276 1198.33 454.202L1198.45 455.545C1201.91 459.064 1207.58 458.521 1211.51 461.21C1211.79 461.4 1212.05 461.606 1212.32 461.804C1218.04 463.305 1223.71 465.27 1228.75 468.413C1231.97 470.424 1235.18 473.051 1236.07 476.917C1235.53 479.134 1234.94 480.362 1232.84 481.624C1222.66 487.747 1198.05 477.188 1187.27 474.225C1191.74 469.499 1199.72 433.858 1199.85 426.739Z"/>
	<path fill="#E57575" d="M383.596 383.016C388.667 385.951 393.498 395.479 397.24 400.278C405.007 410.236 413.828 419.347 422.461 428.548L224.261 481.021C223.396 483.367 222.516 485.732 221.393 487.969C212.734 505.202 187.485 521.017 169.238 526.758C165.22 528.022 159.651 528.831 155.849 526.61C154.323 525.717 153.364 524.357 153.058 522.64C151.673 514.841 166.799 511.39 170.28 505.801C167.539 501.666 136.18 519.019 121.1 512.185C119.603 511.506 119.314 510.833 118.698 509.375C120.44 494.934 148.655 493.197 157.447 485.446C156.194 479.071 114.564 487.868 103.548 478.799C102.19 477.681 102.215 476.882 102.108 475.212C103.557 471.396 106.897 469.027 110.201 466.904C115.897 463.869 122.513 461.91 128.792 460.516C134.523 459.244 152.671 458.587 156.149 455.439C153.881 451.114 127.947 448.701 119.634 444.213C117.243 442.922 115.308 441.639 114.489 438.934C114.844 437.451 114.808 436.92 116.096 435.976C124.036 430.15 155.565 432.096 165.003 433.407C167.396 444.292 171.681 454.031 181.391 460.284C189.143 465.277 199.393 466.893 208.351 464.881C211.337 464.21 215.07 463.612 216.784 460.898C215.912 459.672 215.842 459.216 214.231 459.094C212.407 458.956 209.662 459.827 207.821 460.144C198.971 461.666 191.292 461.471 183.387 456.702C176.493 452.542 172.252 445.485 170.44 437.754C170.083 436.232 169.522 435.19 170.381 433.81C172.222 433.752 173.763 433.86 175.346 432.829C175.296 424.602 156.643 415.086 157.67 403.995C157.837 402.193 158.948 400.852 160.328 399.764C162.655 397.93 165.471 397.662 168.325 397.983C187.482 400.134 205.386 418.209 217.111 432.432C235.474 426.386 254.301 421.358 272.853 415.863L383.596 383.016Z"/>
	<path fill="#E57575" d="M588.085 592.127Q615.31 605.351 642.786 618.042L598.539 830.397L585.29 894.295C582.977 905.54 581.381 917.569 577.918 928.503C576.304 929.233 575.115 928.862 573.372 928.694C570.753 926.603 452.831 901.528 440.402 899.051Q431.529 896.913 422.604 895C441.463 875.149 465.412 867.863 492.101 867.161C503.713 866.855 515.294 867.79 526.824 869.081C539.562 815.913 550.306 762.189 561.944 708.764C570.418 669.862 580.031 631.097 588.085 592.127Z"/>
	<path fill="#E57575" d="M660.586 189.017Q676.212 172.837 693.771 158.779C732.809 127.485 783.776 103.271 834.992 109.014C872.981 113.274 909.473 132.53 933.309 162.507C957.782 198.003 960.299 239.635 952.622 281.146Q950.191 293.88 946.66 306.354Q943.129 318.828 938.526 330.947C938.023 332.177 937.201 335.297 936.402 336.147C934.984 337.654 933.362 337.566 932.708 339.794C934.699 341.511 937.304 342.331 939.763 343.164C958.212 349.413 977.449 354.273 996.145 359.791L1093.96 388.706C1104.63 391.765 1129.06 396.651 1137.16 401.964C1141.3 399.586 1145.19 393.954 1148.55 390.438C1158.95 379.565 1175.24 367.504 1191.16 367.612C1193.17 367.626 1195.59 368.07 1196.92 369.728C1204.69 379.374 1180.42 393.27 1179.71 402.123C1181.03 403.311 1182.78 403.095 1184.52 403.242C1185.47 404.146 1185.74 404.402 1185.92 405.78C1186.48 410.177 1181.86 416.212 1179.17 419.351C1175.55 423.574 1169.14 429.719 1163.33 430.147C1158.39 430.511 1143.7 428.243 1140.29 430.189C1141.05 431.77 1142.3 432.397 1143.87 433.145C1151 436.524 1159.27 435.695 1166.5 433.146C1175.23 430.071 1183.55 422.956 1187.52 414.526C1189.19 410.985 1190.46 406.397 1189.1 402.604C1201.97 402.134 1224.58 399.875 1236.33 403.92C1238.82 404.775 1240.29 405.661 1241.44 408.047C1241.31 408.785 1241.33 409.673 1240.85 410.263C1234.53 418.038 1210.95 420.987 1200.91 422.174C1201.73 421.059 1202.62 419.333 1203.04 418.002C1203.52 416.462 1203.55 415.237 1202.77 413.798L1201.62 414.041C1198.86 417.21 1197.62 421.269 1196.49 425.247C1193.71 435.094 1191.55 445.192 1189.01 455.109C1187.28 461.851 1184.74 469.194 1183.76 476.047C1183.5 477.896 1183.56 478.552 1184.46 480.148C1186.11 480.183 1187.56 479.524 1189.09 478.974C1193.12 479.619 1198.23 484.054 1200.66 487.231C1202.39 489.488 1202.79 490.741 1202.41 493.438C1200.72 495.707 1198.77 496.911 1195.91 497.226C1181.66 498.794 1148.81 478.045 1139.68 467.193C1135.73 462.509 1134.81 454.967 1130 451.109C1129.87 451.005 1129.74 450.909 1129.6 450.809C1129.39 450.612 1129.2 450.385 1128.97 450.219C1125.54 447.827 1068.33 433.982 1060.37 431.852C1006.79 417.525 953.341 401.453 899.339 388.842C895.354 387.912 890.593 386.599 886.54 387.479L886.36 388.18C891.538 392.996 901.337 393.904 908.036 395.292C897.059 416.251 883.392 436.207 868.813 454.807C849.736 479.147 828.69 501.339 806.463 522.803C803.817 525.359 797.505 533.107 794.082 533.52C793.442 531.473 792.831 529.102 790.952 527.993L789.753 528.979C788.865 533.579 791.344 541.352 792.281 545.961C798.631 577.197 806.332 608.229 813.208 639.364L860.37 853.687C869.779 852.887 879.202 852.07 888.65 851.975C918.133 851.679 943.217 858.784 964.769 879.945C913.316 892.441 861.319 902.823 809.623 914.28C806.808 903.39 804.859 892.242 802.572 881.23L790.773 824.579L753.822 647.611C748.967 624.432 745.46 600.596 739.483 577.716C738.817 575.167 737.838 570.915 735.47 569.511L734.61 570.697C734.023 573.899 734.84 576.492 735.675 579.563C724.075 586.993 712.245 593.966 700.343 600.897C652.264 587.33 606.158 562.326 564.94 534.377C485.048 480.205 398.665 392.888 380.102 295.22C373.824 262.19 377.307 228.18 396.554 199.931C417.516 169.164 453.589 146.649 490.032 139.836C551.232 128.395 611.141 155.152 660.586 189.017Z"/>
	<path d="M510.074 284.507C510.241 284.544 510.411 284.567 510.574 284.617C512.166 285.107 512.581 285.445 513.468 286.838C513.581 293.119 505.882 299.962 501.822 304.343C500.071 303.599 499.734 303.565 498.645 301.914C498.488 295.81 506.184 288.8 510.074 284.507Z"/>
	<path d="M528.404 283.049L530.817 283.702C531.516 284.54 532.023 284.799 532.089 285.935C532.382 291.027 524.111 298.879 520.855 302.575L518.837 302.137C517.731 301.163 517.227 301.011 517.186 299.433C517.056 294.488 525.252 286.663 528.404 283.049Z"/>
	<path d="M841.124 257.122C841.673 257.336 842.426 257.569 842.902 257.951C843.629 258.534 844.133 259.403 844.213 260.316C844.665 265.47 836.019 273.565 832.741 277.229C830.925 276.589 830.724 276.549 829.509 274.92C829.275 268.467 837.033 261.601 841.124 257.122Z"/>
	<path d="M821.904 259.185L824.526 259.722C825.237 260.5 825.664 260.654 825.761 261.755C826.196 266.695 817.645 274.936 814.535 278.526L812.388 278.181C811.494 277.43 810.896 277.31 810.736 276.087C810.093 271.186 818.792 262.71 821.904 259.185Z"/>
	<path d="M699.85 291.345C699.996 291.395 700.148 291.431 700.289 291.495C702.208 292.355 703.262 293.673 703.895 295.62C703.661 297.838 702.945 299.166 701.52 300.886C695.184 308.532 684.034 313.352 674.278 314.061C662.849 314.893 653.993 310.927 645.472 303.628C644.317 301.883 643.407 299.831 643.343 297.717C643.308 296.544 643.41 296.605 644.226 295.764C649.397 295.894 651.528 301.262 655.337 303.882C661.223 307.93 669.514 309.167 676.455 308.053C687.121 306.341 693.699 299.693 699.85 291.345Z"/>
	<path d="M748.293 188.023C755.379 187.532 761.783 188.444 768.145 191.796C779.888 197.985 787.414 209.861 791.074 222.327C795.628 237.842 794.582 255.637 786.679 269.912C780.562 280.963 771.951 286.848 759.996 290.275C752.315 290.604 745.698 289.724 738.878 285.95C727.286 279.534 719.798 267.291 716.369 254.787C712.14 239.362 713.604 221.224 721.762 207.303C728.017 196.629 736.542 191.131 748.293 188.023Z"/>
	<path fill="#FEFEFE" d="M749.056 191.736Q750.486 191.678 751.916 191.738Q753.346 191.799 754.766 191.978Q756.186 192.157 757.586 192.454Q758.986 192.751 760.357 193.162Q761.728 193.574 763.06 194.099Q764.391 194.623 765.675 195.256Q766.958 195.889 768.185 196.627Q769.412 197.364 770.573 198.201C781.13 205.816 787.052 218.659 788.978 231.255C791.139 245.382 788.814 261.07 780.084 272.705C772.977 282.178 764.302 285.345 752.946 286.939C756.078 285.118 759.067 283.051 762.079 281.039C770.214 272.27 773.079 262.166 775.789 250.847C766.361 246.372 756.191 243.141 746.381 239.597L773.998 224.846C770.487 214.285 765.579 202.611 755.775 196.347C753.574 194.941 750.409 194.037 749.056 191.736Z"/>
	<path d="M579.821 199.268C587.036 199.063 593.62 200.067 600.084 203.434C611.478 209.368 618.903 220.838 622.635 232.844C627.402 248.182 626.59 265.959 619.023 280.272C613.087 291.503 604.457 297.823 592.503 301.576C584.62 301.86 577.937 301.216 570.882 297.409C559.559 291.298 552.08 279.606 548.502 267.513C543.92 252.022 544.784 234.345 552.644 220.034C558.888 208.666 567.568 202.779 579.821 199.268Z"/>
	<path fill="#FEFEFE" d="M579.796 203.583C587.488 202.92 594.793 204.518 601.254 208.831C611.933 215.96 618.233 228.589 620.508 240.941C623.097 254.995 621.15 270.702 612.898 282.637C605.61 293.179 596.397 296.414 584.382 298.689L592.553 293.48C601.753 284.296 604.651 274.416 607.625 262.135L578.549 250.979C587.377 245.798 596.612 241.117 605.614 236.236Q605.427 235.577 605.231 234.921C600.647 219.647 593.719 211.064 579.796 203.583Z"/>
</svg>
